<?xml version="1.0" encoding="utf-8"?>
<!-- Generator: Adobe Illustrator 22.1.0, SVG Export Plug-In . SVG Version: 6.00 Build 0)  -->
<svg version="1.1" id="Layer_1" xmlns="http://www.w3.org/2000/svg" xmlns:xlink="http://www.w3.org/1999/xlink" x="0px" y="0px"
	 viewBox="0 0 375.6 339.8" style="enable-background:new 0 0 375.6 339.8;" xml:space="preserve">
<style type="text/css">
	.st0{fill:#C19361;}
	.st1{fill:#1E1817;}
	.st2{fill:#1E1D1C;}
	.st3{fill:#AEAEED;}
	.st4{fill:url(#SVGID_1_);}
	.st5{fill:#D13828;}
	.st6{fill:#E84328;}
	.st7{fill:#BF3426;}
	.st8{fill:#8989E0;}
	.st9{fill:url(#SVGID_2_);}
	.st10{fill:url(#SVGID_3_);}
	.st11{fill:#3A2F2C;}
	.st12{fill:#2B2524;}
	.st13{fill:#756663;}
	.st14{fill:url(#SVGID_4_);}
</style>
<title>Customer Success</title>
<path class="st0" d="M361.5,163.3c0.6-2.7,1.6-5.3,2.8-7.7c0.7-1.1,1.4-2,2.4-2.9c1.4-1.1,3.4-0.9,4.5,0.6c0.3,0.3,0.4,0.7,0.6,1.1
	c1.3,5,0.8,10.5,0.4,15.6c0,1.7-0.4,3.3-1,4.9c-2,4.2-8.9,5.9-11.8,1.6C357.6,173.1,360.7,166.8,361.5,163.3z"/>
<path class="st0" d="M133.6,300.1c-1.3,3.6-2.4,7.9-0.6,11.2c1.3,1.9,2.8,3.4,4.8,4.6l17.4,12.1c3.4,2.3,6.9,4.7,10.9,5
	s8.6-2.3,8.9-6.3c0.4-4.7-4.4-7.9-6.8-12.1c-3-5.5-1.3-12.1,0.1-18.1c4-15.1,6.8-30.4,8.5-45.9c-3.5-1.4-14-8-17.6-7
	c-4.2,1.3-7.9,13.1-9.8,16.9C143.5,273.2,138.1,286.4,133.6,300.1z"/>
<path class="st1" d="M206.2,6.1c3.7-2.3,7.6-4.6,11.9-5.5c4.2-0.9,9.1,0,12,3.3c-7.4,0.4-14,4.2-18.4,10c-0.3,0.4-0.6,0.7-1,0.9
	c-0.3,0-0.7,0-1-0.1c-1.7-0.7-9.1-1.4-9.8-3C198.7,9.1,204.5,7.1,206.2,6.1z"/>
<path class="st2" d="M170.1,81.8c1.4,21.2,4.8,42.6,0.7,63.4c-2.7,14.1-8.9,28.1-5.8,42.2c3.4,15.4,19,27,34.5,25.4
	c9.8-1,18.5-6.3,27.9-9.3c7.9-2.6,16.1-3.4,24.5-2.6c7.4,0.7,15.3,2.7,21.8-1c5.4-3.2,8.1-9.6,8.4-15.8s-1.4-12.3-3.3-18.4
	c-3.7-12.3-7.5-24.8-7.1-37.6c0.4-9.2,3-18.1,4.8-27.1c3.4-16.2,4.2-33.4-1.6-48.8s-19-28.7-35.1-30.7c-8.4-1-16.8,0.9-25.1-0.3
	c-7.4-1-14.2-4.4-21.4-6c-2.5-0.7-5.1-0.6-7.6,0.1c-8.6,3-12.9,22.1-14.3,30C169.1,57.2,169.3,69.6,170.1,81.8z"/>
<path class="st3" d="M167,198.9c-4.5,13.1-9.3,26-16.6,37.7c-0.6,0.6-0.4,1.4,0.1,2c0,0,0.1,0.1,0.3,0.1
	c7.2,6.5,15.1,13.2,24.6,14.6c0.6,0.1,1.3,0.1,1.8-0.1c0.6-0.4,1-1,1.1-1.6c6.1-14.3,8.2-30,8.1-45.6c-0.1-7.7-0.7-15.5-1.8-23.1
	c-0.3-1.9-0.4-10.2-2-11.2c-2.4-1.4-5.1,3.6-6.2,5.2C172.2,183.6,169.7,191.3,167,198.9z"/>
<path class="st3" d="M235.4,157.3c9.3-0.6,18.7,0.4,27.8,2.7c8.9,2.6,17.4,7.3,23.4,14.8c6.5,8,9.3,18.7,10.1,29.1
	c0.7,10.5-0.7,20.8-1.7,31.3c-2.4,24.4-3.1,48.9-2,73.3c0.3,5.9,0.4,12.5-3.7,16.6c-2.5,2.6-6.2,3.7-9.9,4.6
	c-29.4,7.2-61.3,8.5-89.1-3.6c-7.1-3-14.2-7.3-17.7-14.2c-3.8-7.5-2.5-16.5-1.3-24.8c3.7-25.5,6.4-51.1,8.1-76.8
	c0.7-11.3-0.1-23.7,2.3-34.9c1.7-8,6.8-10.3,14.3-12.3C208.6,159.7,221.9,157.7,235.4,157.3z"/>
<path class="st0" d="M208.2,162c0.4-2.2,1-4.2,1.6-6.2l0,0c1.4-4.7,3.3-9.3,3-14.3c0-1-0.1-2.2-0.1-3.2c-0.1-1.9,0.1-3.7,0.8-5.6
	c1-2.3,2.7-4.3,4.7-5.7c4.5-3.6,17.7-10.2,20.2-1.4c0.4,1.6,0.6,3.2,0.6,4.7v0.3c0,2.3-0.3,4.7-0.3,6.9c-0.3,5.5,0.7,10.9,2.8,15.9
	C245.3,161.5,201.8,197.3,208.2,162z"/>
<linearGradient id="SVGID_1_" gradientUnits="userSpaceOnUse" x1="228.5311" y1="-213.7685" x2="250.3722" y2="-254.0875" gradientTransform="matrix(1 0 0 -1 -12.83 -86.82)">
	<stop  offset="1.000000e-02" style="stop-color:#000000"/>
	<stop  offset="9.000000e-02" style="stop-color:#000000;stop-opacity:0.82"/>
	<stop  offset="1" style="stop-color:#000000;stop-opacity:0"/>
</linearGradient>
<path class="st4" d="M239.2,130.3l-0.1,0.3l0,0c-1.3,3.2-12.5,27.8-27.5,27.3c0,0-1.1,0.1-1.8-2l0,0c1.4-4.7,3.3-9.3,3-14.3
	c0-1-0.1-2.2-0.1-3.2L239.2,130.3L239.2,130.3z"/>
<ellipse class="st5" cx="176.1" cy="88.4" rx="14.2" ry="17.6"/>
<ellipse class="st6" cx="181.4" cy="88.4" rx="14.2" ry="17.6"/>
<path class="st0" d="M177.8,52.6l3.5,64.6c0,0,1.6,24.8,25.9,25.1c29.2,0.3,37.9-16.9,42.5-30s8.5-51.5,0-62.1
	C241.2,39.5,193.8,14.6,177.8,52.6z"/>
<path d="M172.5,21.2c-8.8,9.8-11.8,23.8-10.5,37c0,2.6,0.8,5,2.4,7c1.8,1.7,4,3,6.5,3.6c4.1,1.4,8.5,2.7,12.7,2s8.4-4.7,7.8-9
	c-1.3,2.6,0.1,5.7,2.4,7.3c2.4,1.4,5.1,2.4,7.8,2.6L216,74l2.5-9.8c-0.8,6.7,3.7,12.8,10.3,13.8c2.7,0.4,5.4-0.1,7.6-1.6
	c0.8,2.9,4.4,4.2,7.2,3.7s5.4-2.3,7.9-3.9c7.4-4.3,15.9-6.3,24.2-5.6c3-20.1-10.1-41.5-29.2-47.8c-4.7-1.6-9.6-2.3-14.4-3.3
	C211.9,14.8,190.2,1.4,172.5,21.2z"/>
<ellipse class="st7" cx="263" cy="88.4" rx="14.2" ry="17.6"/>
<ellipse class="st6" cx="268.4" cy="88.4" rx="14.2" ry="17.6"/>
<path class="st6" d="M260.3,71.9l-7.4-38.7C248.7,17,237.6,4.9,224.2,1.4l-3.1-0.9l5.8-0.4c14.4-1,27.8,9.8,32.7,26.5l10.1,44.3
	L260.3,71.9z"/>
<path class="st8" d="M227.9,202.2c6.9-7.3,11.9-16.4,17-25.1c3-5.5,6.2-11,6.7-17.2c0.1-0.7,0-1.4-0.3-2c-0.3-0.4-0.7-0.9-1.1-1.1
	l-9.5-6.6c-0.1,5.9-4.4,10.9-9.1,14.3c-5.1,3.6-19.5,7.6-16.4,15.2C215.7,181.7,227,203.2,227.9,202.2z"/>
<path class="st8" d="M202.3,158.6c-2,2.9-3.4,6-4.1,9.5c-2.4,9.5-2,19.5-1.4,29.4c0,0.6,0.1,1.3,0.7,1.6c0.3,0.1,0.7,0,0.8-0.1
	c2.1-1.1,4-3,5.1-5.2c3.5-5.3,6.7-10.9,9.5-16.6c0.3-0.6,0.6-1.1,0.6-1.9c-0.1-1-0.7-2-1.6-2.7c-3.1-3.9-3.4-8.6-2.7-13.5
	c0.1-1.6,1.7-4.3-0.3-5C207.3,153.3,203,157.6,202.3,158.6z"/>
<path class="st0" d="M298.4,254.4c-3.5,2.4-8.5,1-12.6,0.9c-5.1-0.1-7.2,0.3-6.2,5.6c2.8,13.1,5.8,25.8,10.8,38.3
	c1.8,5,4.2,9.8,7.4,14.1c2.4,3.4,5.8,6,9.8,7.3c5.1,1.4,10.6-0.4,14.9-3.6c4.2-3.2,7.5-7.5,10.6-11.8c11.3-15.4,14.2-33.4,21.4-51.2
	c7.4-18.5,17.4-36.9,20.4-56.4c0.7-4.7,1.3-10.2-2.1-13.6c-3.4-3.4-9.8-2.6-13.5,0.6s-5.8,8-7.6,12.6c-8.6,20.8-18.3,41-27.9,61.4
	c-0.3,0.7-0.7,1.4-1.4,1.7c-0.7,0.1-1.6,0-2.1-0.4c-3.5-2.3-4.7-7.6-8.8-9.3C307,249,302.1,252.1,298.4,254.4z"/>
<path class="st3" d="M320,263.2c-13.6,3.3-28.7,6.5-41.1-0.3c-2.1-1-3.8-2.6-5.1-4.6c-1.4-2.6-1.4-5.6-1.6-8.6
	c-0.6-13.5-5.7-26.4-6.9-39.7c-1.8-21.1-9.8-53.8,17.8-41.3c15.3,6.9,31.6,39.9,34.8,53.7C319.1,226.3,325,262,320,263.2z"/>
<path class="st0" d="M345.3,167.9c-3.8,3.3-6.2,7.9-6.4,12.8c-0.3,4.4,0.7,8.9,0,13.3c-0.6,3.4-2.3,6.9-1.6,10.5
	c0.1,1,0.6,2,1.4,2.9c1,0.7,2,1.3,3.3,1.6c5.4,1.6,11,3.3,16.7,3s11.8-2.6,14.3-7.2c1.4-3,2.1-6.2,2-9.3l0.4-8.8
	c0.4-3.9,0.1-7.9-0.8-11.8c-1-3.9-4.1-7.2-8.2-8.8C359.6,164.1,350.9,163.5,345.3,167.9z"/>
<linearGradient id="SVGID_2_" gradientUnits="userSpaceOnUse" x1="245.7191" y1="-191.5984" x2="258.9269" y2="-218.7478" gradientTransform="matrix(1 0 0 -1 -12.83 -86.82)">
	<stop  offset="2.000000e-02" style="stop-color:#FFFFFF;stop-opacity:0"/>
	<stop  offset="0.58" style="stop-color:#FFFFFF;stop-opacity:0.39"/>
	<stop  offset="0.68" style="stop-color:#FFFFFF;stop-opacity:0.68"/>
	<stop  offset="1" style="stop-color:#FFFFFF"/>
</linearGradient>
<path class="st9" d="M235.2,134.8c-5.7-0.1-11.3-1.1-16.8-2.9c-1.4-0.3-2.3-1.6-2-3c0.3-1.4,1.6-2.3,3-2c0.1,0,0.3,0.1,0.4,0.1
	c13,4,22.8,3.4,29-1.6c8.5-6.7,7.9-19.7,7.9-19.8c-0.1-1.4,1-2.6,2.4-2.7l0,0c1.4,0,2.5,1,2.7,2.4c0,0.6,0.7,15.6-9.9,24.1
	C247.7,133.1,242,134.8,235.2,134.8z"/>
<linearGradient id="SVGID_3_" gradientUnits="userSpaceOnUse" x1="232.4031" y1="-199.8242" x2="216.5421" y2="-231.7897" gradientTransform="matrix(1 0 0 -1 -12.83 -86.82)">
	<stop  offset="1.000000e-02" style="stop-color:#000000"/>
	<stop  offset="1" style="stop-color:#000000;stop-opacity:0"/>
</linearGradient>
<path class="st10" d="M219.8,122.9c1.4,0.7,2.5,2,3.3,3.4c0.6,2.2-1.1,4.3-2.8,5.7c-1.4,1.3-3.3,2.3-5.2,2.6
	c-2.8,0.3-5.5-1.1-7.9-2.9c-1.3-0.9-2.4-1.9-3.3-3.3c-2.3-3.9,0.6-8.9,4.4-10.6C212.2,116,216.6,120.6,219.8,122.9z"/>
<path class="st11" d="M65.3,318.7h203.9c5.7,0,10.3,4.7,10.3,10.5l0,0c0,5.7-4.7,10.5-10.3,10.5H65.3c-5.7,0-10.3-4.7-10.3-10.5l0,0
	C55,323.4,59.5,318.7,65.3,318.7z"/>
<path class="st12" d="M198.6,339.7H42l-41.3-106c-1.8-4.7,0.4-10.2,5.2-12.1c1-0.4,2.1-0.6,3.3-0.7H132c12.2,0,23.1,7.6,27.6,19.1
	L198.6,339.7z"/>
<path class="st13" d="M190.6,339.8H42L2.8,239.1c-1.8-4.6,0.4-9.6,5-11.5c1-0.4,2.1-0.6,3.3-0.6h116.7c11.6,0,21.9,7.2,26.2,18.1
	L190.6,339.8z"/>
<linearGradient id="SVGID_4_" gradientUnits="userSpaceOnUse" x1="5331.6025" y1="-463.3425" x2="5338.0967" y2="-298.9275" gradientTransform="matrix(-1 0 0 -1 5431.4897 -86.82)">
	<stop  offset="1.000000e-02" style="stop-color:#000000"/>
	<stop  offset="0.12" style="stop-color:#000000;stop-opacity:0.75"/>
	<stop  offset="1" style="stop-color:#000000;stop-opacity:0"/>
</linearGradient>
<path class="st14" d="M190.6,339.8H42L2.8,239.1c-1.8-4.6,0.4-9.6,5-11.5c1-0.4,2.1-0.6,3.3-0.6h116.7c11.6,0,21.9,7.2,26.2,18.1
	L190.6,339.8z"/>
<image style="overflow:visible;enable-background:new    ;" width="2000" height="2000" xlink:href="../logos/redes-de-ayuda-b&amp;w.png"  transform="matrix(8.232405e-03 7.880508e-04 -8.714524e-04 9.347793e-03 251.547 206.2471)">
</image>
</svg>
