<?xml version="1.0" encoding="utf-8"?>
<!-- Generator: Adobe Illustrator 22.1.0, SVG Export Plug-In . SVG Version: 6.00 Build 0)  -->
<svg version="1.1" id="Capa_1" xmlns="http://www.w3.org/2000/svg" xmlns:xlink="http://www.w3.org/1999/xlink" x="0px" y="0px"
	 viewBox="0 0 1000 1000" style="enable-background:new 0 0 1000 1000;" xml:space="preserve">
<style type="text/css">
	.st0{fill:#B54D2D;}
	.st1{fill:#EF5018;}
	.st2{fill:url(#SVGID_1_);}
	.st3{fill:#FFFFFF;}
	.st4{fill:url(#SVGID_2_);}
	.st5{fill:url(#SVGID_3_);}
	.st6{fill:url(#SVGID_4_);}
	.st7{opacity:5.000000e-02;fill:#000405;enable-background:new    ;}
	.st8{opacity:0.22;fill:#FFFFFF;enable-background:new    ;}
</style>
<path class="st0" d="M971.3,386.9v558.9c0,29.4-23.8,53.4-53.4,53.4l0,0H82.3c-29.4,0-53.4-23.8-53.4-53.4l0,0V386.9
	c0-29.4,23.8-53.4,53.2-53.4h835.8C947.5,333.5,971.3,357.5,971.3,386.9L971.3,386.9z"/>
<path class="st1" d="M956.9,350.7h-915l7.5-5.6c0.4-0.2,0.6-0.6,1.1-0.9L485.7,10.5L499.4,0l442.9,339.5L956.9,350.7z"/>
<path class="st1" d="M971.3,386.9l-11.2,8.2l0,0L879,453.9L485.7,738.7L107.1,447.2l-78.3-60.3l1.1-10.3c1.9-9.7,6.4-18.7,13.3-26
	c1.9-2.1,3.9-3.9,6.2-5.6c0.4-0.2,0.6-0.6,1.1-0.9c9.2-6.9,20.4-10.5,31.7-10.5H918c27.5,0,50.4,20.8,53.2,48.3
	C971.3,383.5,971.3,385.2,971.3,386.9z"/>
<linearGradient id="SVGID_1_" gradientUnits="userSpaceOnUse" x1="600.2439" y1="-307.6126" x2="340.7187" y2="614.6672" gradientTransform="matrix(1 0 0 1 0 332)">
	<stop  offset="0" style="stop-color:#000000;stop-opacity:0"/>
	<stop  offset="0.91" style="stop-color:#000000;stop-opacity:0.8"/>
	<stop  offset="1" style="stop-color:#000000"/>
</linearGradient>
<path class="st2" d="M970.4,386.9l-11.2,8.2l0,0l-80.9,58.6l-393.6,285L106.3,447.2L28,386.9l1.1-10.3c2.6-12.4,9.4-23.8,19.5-31.7
	l1.1-0.9L484.9,10.5L498.6,0l442.9,339.5c16.3,8.4,27,24.2,29,42.5C970.4,383.5,970.4,385.2,970.4,386.9z"/>
<path class="st3" d="M879.1,345.7v108.1L733.9,558.9l-33.2,24.2l-215,155.8L283.5,583.2L252.2,559l-145-111.5V345.7
	c0-17.6,14.2-31.7,31.7-31.7l0,0h708.7C864.9,314,879.1,328.2,879.1,345.7z"/>
<linearGradient id="SVGID_2_" gradientUnits="userSpaceOnUse" x1="517.7136" y1="-54.0586" x2="361.1403" y2="696.6342" gradientTransform="matrix(1 0 0 1 0 332)">
	<stop  offset="0" style="stop-color:#000000;stop-opacity:0"/>
	<stop  offset="0.91" style="stop-color:#000000;stop-opacity:0.8"/>
	<stop  offset="1" style="stop-color:#000000"/>
</linearGradient>
<path class="st4" d="M772.7,440.3H200c-6.6,0-12-5.4-12-12l0,0c0-6.6,5.4-12,12-12h572.7c6.6,0,12,5.4,12,12l0,0
	C784.7,435,779.3,440.3,772.7,440.3z"/>
<linearGradient id="SVGID_3_" gradientUnits="userSpaceOnUse" x1="532.0048" y1="-51.0929" x2="375.4317" y2="699.6002" gradientTransform="matrix(1 0 0 1 0 332)">
	<stop  offset="0" style="stop-color:#000000;stop-opacity:0"/>
	<stop  offset="0.91" style="stop-color:#000000;stop-opacity:0.8"/>
	<stop  offset="1" style="stop-color:#000000"/>
</linearGradient>
<path class="st5" d="M772.7,511.8H200c-6.6,0-12-5.4-12-12l0,0c0-6.6,5.4-12,12-12h572.7c6.6,0,12,5.4,12,12l0,0
	C784.7,506.4,779.3,511.8,772.7,511.8z"/>
<linearGradient id="SVGID_4_" gradientUnits="userSpaceOnUse" x1="550.1896" y1="-47.2971" x2="393.6167" y2="703.3961" gradientTransform="matrix(1 0 0 1 0 332)">
	<stop  offset="0" style="stop-color:#000000;stop-opacity:0"/>
	<stop  offset="0.91" style="stop-color:#000000;stop-opacity:0.8"/>
	<stop  offset="1" style="stop-color:#000000"/>
</linearGradient>
<polygon class="st6" points="733.9,558.9 700.6,583 283.5,583 252.1,558.9 "/>
<polygon class="st7" points="485.7,738.7 136.3,999.1 842.2,999.1 "/>
<polygon class="st8" points="30.4,416.3 467.3,752.4 485.7,738.7 28.9,386.9 "/>
<polygon class="st8" points="500.1,750.3 971.3,411 971.3,387.8 485.7,739.8 "/>
<path class="st8" d="M971.1,382.9l-1.3,3.6l-9.7,9.7c6.6-11.6-12.2-38.6-12.2-38.6l-7.5-5.6l-22.7-17.2l-432-323.4l13.7-10.5
	l442.9,339.5C958.4,348.5,969.4,364.6,971.1,382.9z"/>
</svg>
