<?xml version="1.0" encoding="utf-8"?>
<!-- Generator: Adobe Illustrator 22.1.0, SVG Export Plug-In . SVG Version: 6.00 Build 0)  -->
<svg version="1.1" id="_x32_f6fd1f6-d78d-476c-9a6e-377c563dc101"
	 xmlns="http://www.w3.org/2000/svg" xmlns:xlink="http://www.w3.org/1999/xlink" x="0px" y="0px" viewBox="0 0 950 820.8"
	 style="enable-background:new 0 0 950 820.8;" xml:space="preserve">
<style type="text/css">
	.st0{fill:#FFC1C7;}
	.st1{fill:#575988;}
	.st2{fill:none;}
	.st3{opacity:0.1;enable-background:new    ;}
	.st4{opacity:0.1;fill:#2669DA;enable-background:new    ;}
	.st5{opacity:0.1;}
	.st6{fill:#2669DA;}
	.st7{fill:url(#SVGID_1_);}
	.st8{fill:#FFC1C8;}
	.st9{opacity:3.000000e-02;enable-background:new    ;}
	.st10{fill:#FF748F;}
	.st11{fill:#5D618C;}
	.st12{fill:#BA9097;}
	.st13{fill:#DCE6F2;}
	.st14{fill:#CC9AA1;}
	.st15{fill:#FFFFFF;}
	.st16{fill:#C69EA5;}
	.st17{fill:#FF6584;}
	.st18{opacity:0.2;enable-background:new    ;}
	.st19{fill:#794F6A;}
	.st20{fill:#945B79;}
	.st21{opacity:0.1;fill:none;stroke:#000000;stroke-width:2;stroke-miterlimit:10;enable-background:new    ;}
</style>
<title>back to school</title>
<path class="st0" d="M785.6,716.4l-3.8,5.3L758.5,755l-19.8,5.7L724,746.9l0.7-9.1l3.7-47.5c0,0-91.3-51.5-99.4-61.2
	s-39.6-18.4-39.6-18.4s-48-21.4-65.9-58.7s29.8-43.1,29.8-43.1l179.2,164.5L785.6,716.4z"/>
<path class="st1" d="M807.6,735.7l-56.8,50.9c0,0-32.6,6-61.8,1.8c-18.7-2.7-15.1-12.5-10.2-19.3l0.1-0.1c2.9-3.9,7.2-6.6,12.1-7.6
	c24.2-5.6,32.5-22.4,32.5-22.4l17.6,14.5l30.4-34.1l22.5,10.1L807.6,735.7z"/>
<line class="st2" x1="737.3" y1="777.6" x2="794" y2="730.2"/>
<path class="st3" d="M794,729.6l-13.4-6l1.3-1.8l3.8-5.3l-53.1-43.1L553.3,508.9c0,0-47.7,5.7-29.8,43.1s65.9,58.7,65.9,58.7
	s31.4,8.7,39.6,18.4s99.5,61.1,99.5,61.1l-3.7,47.5l-0.2,2.3l-1.2-1c0,0-8.3,16.8-32.5,22.4c-4.9,1.1-9.2,3.8-12.1,7.6l-0.1,0.1
	c-5,6.7-8.5,16.6,10.2,19.3c29.2,4.2,61.8-1.8,61.8-1.8l56.8-50.9L794,729.6z"/>
<path class="st4" d="M309.9,282h-24.2c6.7-0.2,12.3,4.8,12.5,11.2c0.2,6.4-5,11.8-11.7,12c-0.3,0-0.5,0-0.8,0h-140
	c-6.7-0.2-11.9-5.6-11.7-12c0.2-6.1,5.3-11,11.7-11.2H170c-6.7,0-12.1-5.2-12.1-11.6s5.4-11.6,12.1-11.6h-17.3
	c-6.7-0.2-11.9-5.6-11.7-12c0.2-6.1,5.3-11,11.7-11.2h140c6.7,0.2,11.9,5.6,11.7,12c-0.2,6.1-5.3,11-11.7,11.2H310
	c6.7,0,12.1,5.2,12.1,11.6C322,276.8,316.6,282,309.9,282L309.9,282z"/>
<g class="st5">
	<path class="st6" d="M827.8,234.2c-10.6,3.2-47.2-6-47.2-6s24.7-27.5,35.2-30.7c10.3-3.9,22,1,26,10.9s-1.1,21.1-11.4,25
		C829.6,233.7,828.7,234,827.8,234.2L827.8,234.2z"/>
	<path class="st6" d="M732.2,232.2c6.3,8.8,40.9,23.3,40.9,23.3s-1.6-36.3-7.8-45.1c-6.9-8.3-19.5-9.7-28.2-3.1
		C729.3,213.3,727.2,223.8,732.2,232.2L732.2,232.2z"/>
</g>
<path class="st4" d="M283.5,40.3c0,0-10.2,27.1,10.9,29.5c2,0.9,4.4,0.5,5.9-1c0,0-1.5-0.5-0.1-3.1c0.5-0.9,0.8-1.9,1-3
	c0.3-1.4,0.2-2.8-0.4-4.1l0,0c0,0-0.9-8.7-13.2-15.4c0,0-2.2-3-3-3.2l0.6,5.2c0,0,4-0.6,6.5,1.5c0,0-6.3-1.6-6.5-0.7
	c0,0.2,0.5,2.8,0.5,2.8s6.9-1,10.7,2.3c0,0-7.3-2.9-10.5-1.3l1,3.8c0,0,7.3-1.4,11.7,2.2c0,0-7.7-2.8-11.5-1.4l1.5,3.6
	c0,0,7.1-1.2,10.8,1.8c0,0-9.2-2.4-10.4-1c0.6,1.4,1.5,2.7,2.4,3.9c0,0,5.1-0.8,7.1,1.2c0,0-6.3-1-6.6-0.3c0,0,3.2,3.7,5.9,4.8
	c-2.5-0.9-4.8-2.3-6.5-4.3c-0.2,1.6,0.2,3.1,0.9,4.5c0,0-2.7-1.2-1.7-5.5c0,0-2.4-3-2.4-3.6c0,0-1.6,4.1-1.3,6.9c0,0-2-3,0.8-7.9
	l-1.6-3.6c0,0-2.5,5.3-2.3,7.8c0,0-1.6-3.3,2-8.8l-1-3.7c-1.3,2.3-2.3,4.7-3,7.2c0,0-0.7-3.4,2.7-8.4l-0.4-2.6c0,0-1.8,3.2-2.2,4.2
	c-0.4,1-0.7,0.9-0.7,0.9c0.3-2.3,1.2-4.4,2.7-6.2C284.2,45.6,283.9,40.3,283.5,40.3z"/>
<linearGradient id="SVGID_1_" gradientUnits="userSpaceOnUse" x1="516.9561" y1="530.6699" x2="516.9561" y2="-275.7182" gradientTransform="matrix(1 0 0 1 -51.45 280.43)">
	<stop  offset="0" style="stop-color:#808080;stop-opacity:0.25"/>
	<stop  offset="0.54" style="stop-color:#808080;stop-opacity:0.12"/>
	<stop  offset="1" style="stop-color:#808080;stop-opacity:0.1"/>
</linearGradient>
<path class="st7" d="M844.9,323.4c2.7,3,5.8,5.8,9,8.3l24.5,20c4.4,3.6,8.8,7.2,14.3,8.9c6.6,2,13.8,0.9,19.5-2.9l-0.4-0.1l0.4-0.3
	c-4.1-1.3-8.4-2.6-11.8-5.2c-2.8-2-4.7-5.1-5.2-8.4l0,0c0-0.2,0-0.3,0-0.5c0-0.5,0.1-0.9,0.1-1.4c5.3-0.4,10.3-2.1,14.7-5l-0.4-0.1
	l0.4-0.3c-13-4-22.1-15.7-26.2-28.2c-4.1-12.4-4.1-25.7-4.5-38.7s-1.4-26.4-7.3-38.1c-2.2-4.4-5-8.6-6.1-13.4
	c-0.3-1.4-0.4-2.9-0.4-4.3c0.1-4.6,1.5-9.3,2.8-13.8c2.9-10.1,5.2-20.4,6.9-30.7c0.7-3.7,1-7.4,1.1-11.1c0.1-3.6-0.5-7.3-1.8-10.7
	c-5.8-14.3-25.7-21.1-28.8-36.1c-0.4-2-0.5-4.1-0.5-6.1c0-1.1,0-2.3,0-3.4s0-2.4-0.1-3.5c-0.9-10.6-7.7-19.8-14.3-28.4
	c-7.9-10.3-16.3-21.1-28.5-26.6c-9.5-4.3-22.1-5.7-33.4-4.8c-5.1-4.2-10.6-7.8-16.5-10.8c-8.6-4.6-17.6-9.1-27.1-10.1
	c-12.1-1.3-24.1,3.2-36.2,3.9c-16.5,1-32.7-4.8-49.3-6s-35.5,4.1-42.9,20.1c-1.7,3.9-2.8,8-3.1,12.2l0,0c-0.1,0.8-0.1,1.6-0.2,2.4
	v0.1c-0.1,3.3,0,6.5,0.3,9.8v0.4c0,0.7,0.1,1.3,0.2,2c0,0.2,0,0.4,0.1,0.6c0,0.6,0.1,1.2,0.2,1.8l0.1,0.6c0.1,0.8,0.2,1.5,0.3,2.3
	c0.2,1.6,0.5,3.1,1,4.6c0.3,0.9,0.8,1.7,1.3,2.4c1.8,2.2,4.5,2.8,7.3,3.3l2.2,0.3c-0.2,0.4-0.5,0.9-0.7,1.3
	c-5,10.1-7.6,21.1-7.5,32.3c0,37.9,29.2,69.3,67.5,75l2.3,2.7c14.1,16.9,31.8,39.6,40.2,55.8c-9.7,11.6-21.1,32.1-24.3,66.5
	l-4.8,10.8c-10.1,13.9-12.7,34-10.1,52.7c-2.8,10.1-6.1,22.8-8.3,33.3c-16.7-3.6-73.8-12.4-87.2-20.9l-39.7-18
	c0,0-51.5-34.5-79.2-23c-10.6-12.5-26.6-25.6-33.4-30.5c-11.8-8.5-41.2-41.7-41.2-41.7l-46-58.6c-0.1-6.8-0.9-12.6-2.8-15.1
	c-5.4-7-34.1-22.4-39.9-19.1c-5.7,3.3-10.5-7.2-10.5-7.2l-0.4-0.2c-1.1-0.6-4.1-2.3-8.4-4.5c-0.2-4.9-0.1-9.8,0.4-14.7
	c0.1-0.8,0.2-1.6,0.3-2.4c31.3-1.1,58.1-22,65.5-51.3c0.2-0.8,0.3-1.5,0.5-2.3c4.2,0.9,8.6-0.3,11.6-3.2c4-4.1,4.2-10.5,2.9-16
	c-1.3-5.5-3.8-10.8-4.4-16.4c-0.8-7.7,2-15.7-0.6-22.9c-2.2-6.2-7.9-10.7-14-13.6s-12.8-4.6-19-7.3c-6-2.5-11.5-5.9-17.7-7.9
	c-8-2.6-16.6-2.7-25.1-2.5c-5.3-2.1-10.7-4-16.4-4.6c-6.3-0.7-13.2,0.5-18,4.5c-3.8,3.2-6.8,8.3-11.9,8.5c-2.5,0.1-4.8-1.1-7-2.1
	c-6.3-2.9-14.4-4.6-20.1-0.7c-4.6,3.1-6.3,8.8-7.1,14s-0.9,10.8-3.6,15.6c-1.6,2.9-4.1,5.3-6.2,7.9c-5.2,6.7-7.7,15.1-6.9,23.4v0.2
	c-0.3-1.2-0.6-2.3-0.8-3.5c0,0.9,0,1.8,0.1,2.7c0.5,4.1,1.5,8.2,2.8,12.2l5.2,17.5c2.6,8.9,5.3,17.9,10.4,25.8c2,3.1,4.3,6,7,8.5
	c4.3,4.3,9.8,7.4,15.8,8.8c2.1,0.5,4.3,0.6,6.5,0.4c0,0.3-0.1,0.5-0.1,0.7c-0.5-0.1-0.9-0.2-1.4-0.2c-2-0.4-4.2-0.4-6.2,0.2
	c-9.9,3.4-12.9,13.7-13.8,17.7c-0.2,1-0.3,1.7-0.3,1.7s0.2,0.6,0.4,1.6l-0.1,0.3c-0.2,1-0.3,1.7-0.3,1.7s0.2,0.6,0.4,1.7l-2.6,0.1
	l-43.3,5.4c-9.9-0.7-19.3-0.8-24.3,0.3c-0.4,0.1-0.8,0.2-1.3,0.3c-6.3,2.1-35,21.1-60.9,38.7c0-0.5,0-1-0.1-1.4l-7.3,5
	c0,0.5,0,1,0,1.5c-1.8,1.2-3.7,2.5-5.4,3.7c-7.9,5.4-15.1,10.3-20.4,14.1c-6.5,4.5-10.5,7.3-10.5,7.3s-2.4,0.7-4,4.3
	c-2,4.5-2.7,13.6,4.6,31.5c13.1,31.8,15.9,53.3,15.9,53.3c-3.5,0.4-7,1.2-10.4,2.4c-4.5,1.7-9.3,4.7-11.2,9.6
	c-1.3,3.5-1.3,7.2-0.1,10.7C25.8,381.5,126,498.5,126,498.5l1.3,0.1c5.1,0.4,10.3,0.4,15.4,0c4.7-0.5,9.1-1.5,11.1-3.8
	c0,0,22.2,27.4,54.8,8.7c-0.2,24.8-0.9,43,3.2,52.2c6.4,14.2,6.4,46.7,6.4,46.7l6.1,0.2c-0.3,1.2-0.7,2.4-1.1,3.6
	c-2.8,8.9-6.9,19.6-11.3,22.2c-7.4,4.3-3.9,78.9-3.6,85.3l0,0c0,0.3,0,0.4,0,0.4l-0.4,30.1v2.4c-0.9-1.2-1.7-2.4-2.4-3.7
	c0,0-11.8,10.8-12,33.7s0.2,23.7,0.2,23.7s47.7-1.8,56.7,1.4s83.8-2.7,83.8-2.7s2.8-6.9-5.2-12.2c12.7-0.9,26.6-3.2,34.8-8.9
	c17.9-12.4-36.1-22.1-39.9-24s-22.4-17.8-30.1-23.7c-2.3-1.6-5.1-2.6-8-2.8l1-27c11.5-12.4,23.9-80.9,23.9-80.9
	c4.1-3.3,5.8-11.2,6.6-16c3-1,5.1-3.7,5.2-6.7l0,0c13.1,0.4,29.7,0.3,32.9-2.7c5.4-5.2,4.8-22.7,4.8-22.7l-7.7-186.1l-0.5-0.7
	c1.3-8.5,1.3-17.2,0.1-25.7c17.2,4.7,30.6,7.9,30.6,7.9s25.9,4.6,44.1,8.4c-3,3-5.2,6.7-6.6,10.6c-16.3,44.6,76.3,42.7,76.3,42.7
	l43.7,19.4l102.9,32.3c-33.1-9.4-70.8-20.4-96.5-27.9c-2.5-0.7-5.1-1.3-7.7-1.8c-23.6-4.1-48.1,4.1-63.1,22.3
	c-0.2,0.2-0.3,0.4-0.5,0.7c-7.4,9.2-7.6,22-0.7,31.5c3.9,5.3,9.2,12.4,15.4,20.7c-13,3.8-34.6,14.3-21.5,41.4c18.2,37.6,67,59,67,59
	s31.9,8.8,40.2,18.5c2.3,2.7,11.3,8.8,23,16c7.5,7.7,13.4,12.7,16.9,13.8c14,4.4,41.2,25.6,60.4,41.6l-2.9,38l-0.2,2.3l-1.2-1
	c0,0-8.5,16.9-33,22.5c-4.9,1.1-9.3,3.8-12.3,7.7l-0.1,0.1l-0.7,1l-0.6-0.4c-5,6.8-7.4,16.7,11.6,19.4c29.7,4.2,62.8-1.8,62.8-1.8
	l29.6-26.2c3.3,2.7,7.1,4.6,11.3,5.6c22.1,4.8,84.2,27.9,84.2,27.9c0-6.5,54.9-89.7,54.9-89.7c74.1-134.6-6.5-235.1-15.4-245.6
	l-0.8-0.9l-0.7-11.2l-0.2-2.6c0,0,40-17,24.7-25c-15.3-8.1-23.9-46.9-38.3-63c-11.3-12.6-10.6-41.9-11.8-66.8
	c1.3,6.2,4.1,11.9,8.1,16.9c0.1,0.1,0.2,0.2,0.3,0.3l-1.1-0.9C844.3,322.7,844.6,323.1,844.9,323.4z M352.2,313.1
	c5.1,5.3,14.1,12.1,20.1,16.4c-7.1-3.3-12.7-6.2-17-8.4C354.4,318.4,353.3,315.7,352.2,313.1L352.2,313.1z M199.9,187
	c-1.2,3.5-3.5,6.7-6.5,9l-2.5-10.4C194.3,186.1,197.3,186.6,199.9,187z M701.8,472.7c1-2,2-4.1,3.1-6c4.4-1.4,8.3-4,11.2-7.4
	c2.2,7.3,3.8,14.7,4.8,22.2c0,0.3,0,0.5,0,0.5c-0.1,3-0.5,6-1.4,9c-1.2,3.5-3.3,6.8-7.1,7.2c-1.6,0.2-9.4-1.7-21.2-4.7
	c-3.4-0.9-7.1-1.9-11.1-3C686.3,490.1,695,486.7,701.8,472.7z M800,218.4c-2.3-3.6-7.2-5.9-13.2-7.3c-1.1-0.7-2.8-1.8-4.9-3.3
	c-10.5-7.4-31.6-24.1-41.3-45.4c2.7-0.7,5.3-1.6,7.9-2.8c3.9-1.7,7.7-3.9,11.1-6.4c1.2-0.9,2.3-1.8,3.4-2.7c2.8-2.4,5.3-5,7.5-7.9
	c0.9-1.2,1.8-2.3,2.5-3.6c1.2-1.9,2.3-3.8,3.3-5.8c2.3-4.6,4-9.5,5.3-14.5c0.5-2,0.9-4,1.3-6.1s0.7-4.1,0.9-6.2
	c0.8-7.3,1.1-14.7,0.9-22c0-0.3,0-0.7,0-1.1c0-0.1,0-0.3,0-0.4l0,0c0-7.4-0.9-14.9-2.5-22.2c0.6,0.2,1.1,0.4,1.7,0.7
	c0.9,0.4,1.8,0.9,2.6,1.5c-0.2-0.3-0.4-0.6-0.6-0.8c3.6,2.3,6.4,5.8,8.8,9.3c22.6,33.8,28.1,75.6,14.9,113.7
	c-1.8,5.2-4,10.3-4.5,15.7c-1.8,19.4,17.6,34.2,24.8,52.5c3.6,9.1,4.2,19.3,4.6,29.3C828.9,257.4,809,232.4,800,218.4L800,218.4z"/>
<path class="st8" d="M320.1,602.3c0,0-0.9,15.1-6.9,19.9c0,0-12.2,68.1-23.5,80.4l-1.9,6.9l-47.1-5.1l9.4-60.2l8.8-55.4L320.1,602.3
	z"/>
<path class="st9" d="M320.1,602.3c0,0-0.9,15.1-6.9,19.9c0,0-12.2,68.1-23.5,80.4l-1.9,6.9l-47.1-5.1l9.4-60.2l8.8-55.4L320.1,602.3
	z"/>
<polygon class="st10" points="269.3,703.4 289.6,702.6 288.6,733.2 273,743.2 245,737.3 255.3,696.4 "/>
<polygon class="st9" points="269.3,703.4 289.6,702.6 288.6,733.2 273,743.2 245,737.3 255.3,696.4 "/>
<path class="st11" d="M273,730.9c0,0,15.9-4.5,23.5,1.4s25.9,21.6,29.6,23.5c3.7,2,56.7,11.6,39.2,23.9s-62.5,8.8-62.5,8.8
	s-29.4-8.2-30.2-8.6c-0.8-0.4-18.8-8.8-19.4-9.4c-0.6-0.6,5.1-39.8,5.1-39.8L273,730.9z"/>
<path class="st9" d="M273,730.9c0,0,15.9-4.5,23.5,1.4s25.9,21.6,29.6,23.5c3.7,2,56.7,11.6,39.2,23.9s-62.5,8.8-62.5,8.8
	s-29.4-8.2-30.2-8.6c-0.8-0.4-18.8-8.8-19.4-9.4c-0.6-0.6,5.1-39.8,5.1-39.8L273,730.9z"/>
<path class="st6" d="M226.9,323.6l-0.9,56l-2.1,119.5l-1.3,1c-37.4,31-63.7-1.8-63.7-1.8c-2,2.3-6.3,3.3-10.9,3.8
	c-5.1,0.4-10.1,0.4-15.2,0l-1.3-0.1c0,0-98.6-116.4-104.6-136.8c-1.2-3.5-1.2-7.2,0.1-10.7c1.9-4.9,6.6-7.8,11.1-9.5
	c3.3-1.2,6.7-2.1,10.2-2.4c0,0-2.8-21.4-15.7-53c-7.2-17.8-6.5-26.8-4.5-31.3c1.6-3.5,3.9-4.3,3.9-4.3s4-2.8,10.4-7.2
	c5.3-3.7,12.3-8.6,20.1-14l7.2-5c26.6-18.3,58.7-39.9,65.3-42.2c0.4-0.1,0.8-0.3,1.3-0.3c13.5-3.1,58.7,3.4,58.7,3.4L226.9,323.6z"
	/>
<path class="st2" d="M226.9,323.6l-0.9,56c-44.7-12.6-86.2-96.4-91.7-103c-4.7-5.7,0.1-69.6,1.9-91.3c13.5-3.1,58.7,3.4,58.7,3.4
	L226.9,323.6z"/>
<path class="st3" d="M226.9,323.6l-0.9,56c-44.7-12.6-86.2-96.4-91.7-103c-4.7-5.7,0.1-69.6,1.9-91.3c13.5-3.1,58.7,3.4,58.7,3.4
	L226.9,323.6z"/>
<path class="st12" d="M739.5,214.6c0,0-34.8,17.2-39.2,84.6c0,0-5.7,34.3-8.8,40.4c-3.1,6-18.2,63-16.3,69.9c0,0-3.1,6.9-14.8,3.9
	c-11.6-3-74.4-12.4-88.5-21.4L533,374.2c0,0-76-51.5-92-7.2s75,42.5,75,42.5l43,19.3L689.2,470c0,0,17.3,7.5,28.9-16.6
	c7.4-15.2,16.3-29.7,26.4-43.4c0,0,26.4-71.1,26.1-83.1s28.3-40.7,28.3-40.7s5.7-75.9-40.8-74.4L739.5,214.6z"/>
<path class="st8" d="M370.9,273.2c1.9,2.1,10.7,6.5,10.7,6.5s28.9,33,40.5,41.4s49.6,40.7,41.9,52.9c-7.7,12.2-16.3,9.5-16.3,9.5
	l-68-45.2c0,0-23.9-16.4-28.7-24.2s-10.8-24.2-10.8-24.2L370.9,273.2z"/>
<path class="st9" d="M370.9,273.2c1.9,2.1,10.7,6.5,10.7,6.5s28.9,33,40.5,41.4s49.6,40.7,41.9,52.9c-7.7,12.2-16.3,9.5-16.3,9.5
	l-68-45.2c0,0-23.9-16.4-28.7-24.2s-10.8-24.2-10.8-24.2L370.9,273.2z"/>
<polygon class="st13" points="332.8,216.8 381.6,279.6 337.7,296.1 319.5,243.5 "/>
<polygon class="st9" points="332.8,216.8 381.6,279.6 337.7,296.1 319.5,243.5 "/>
<path class="st1" d="M345.5,376.9l8.8,12.4l7.5,185c0,0,0.6,17.5-4.7,22.6s-49,1.8-49,1.8s1.6-188.6,2.2-192.2
	S345.5,376.9,345.5,376.9z"/>
<path class="st3" d="M345.5,376.9l8.8,12.4l7.5,185c0,0,0.6,17.5-4.7,22.6s-49,1.8-49,1.8s1.6-188.6,2.2-192.2
	S345.5,376.9,345.5,376.9z"/>
<path class="st8" d="M286.7,610.7c-2.9,6.7-6.2,13.3-10,19.6c0,0-8.2,44.7-11.6,48.8c-2.5,3-3.7,25.5-4.1,37.2
	c-0.2,4.2-0.2,7.1-0.2,7.1l-48,22l-0.2-29c0,0,0-0.1,0-0.4l0,0c-0.3-6.4-3.8-80.5,3.5-84.8c4.3-2.5,8.3-13.3,11.1-22
	c2.1-6.8,3.4-12.5,3.4-12.5s53.3-3.3,57.8,2.2C289.9,600.8,288.8,605.5,286.7,610.7z"/>
<path class="st3" d="M286.7,610.7c-21.6-0.4-48.7-1.3-59.7-1.7c2.1-6.8,3.4-12.5,3.4-12.5s53.3-3.3,57.8,2.2
	C289.9,600.8,288.8,605.5,286.7,610.7z"/>
<path class="st1" d="M223.7,336.6c0,0-14.8,75.3-11.9,123.8s-2.2,84.3,4.1,98.5c6.3,14.2,6.3,46.4,6.3,46.4s85.4,3,94.2,1.8
	s8.5-7.5,8.5-7.5s-6-50-0.3-65.7s4.7-63.6,4.7-63.6l23.9-77.1c0,0,7.2-34.6-7.8-48.8C330.1,330.2,223.7,336.6,223.7,336.6z"/>
<path class="st14" d="M730.4,734.5l-3.8,5.3l-23.3,33.3l-19.8,5.7l-14.8-13.9l0.7-9.1l3.7-47.5c0,0-91.3-51.5-99.4-61.2
	c-8.2-9.6-39.6-18.4-39.6-18.4s-48-21.4-65.9-58.7s29.8-43.1,29.8-43.1l179.2,164.5L730.4,734.5z"/>
<polygon class="st3" points="726.7,739.8 703.4,773 683.6,778.8 668.8,764.9 669.5,755.8 685.8,769.1 716.2,735.1 "/>
<path class="st1" d="M752.3,753.8l-56.8,50.9c0,0-32.6,6-61.8,1.8c-18.7-2.7-15.1-12.5-10.2-19.3l0.1-0.1c2.9-3.9,7.2-6.6,12.1-7.6
	c24.2-5.6,32.5-22.4,32.5-22.4l17.6,14.5l30.4-34.1l22.5,10.1L752.3,753.8z"/>
<path class="st15" d="M752.3,754.4l-56.8,50.9c0,0-32.6,6-61.8,1.8c-18.7-2.7-16.3-12.5-11.4-19.3c5.6,4.3,12.4,7,19.6,7.8
	c16,1.5,40.2,0,40.2,0l56.7-47.4L752.3,754.4z"/>
<path class="st8" d="M283.3,144.2c-4.6,2.2-6.7,9.1-7.6,16.9c-1.4,13.3,0.9,29.4,0.9,29.4s-62.8-16.5-56.1-19.7
	c3.9-1.8,5.9-15.3,6.9-26.3c0.8-8.2,1-15,1-15S295.8,138.2,283.3,144.2z"/>
<path class="st16" d="M783,217.3c0,0-76.2,69.1-73.7,49c0.4-2.8-0.7-6.7-2.6-11.2c-7-16.3-26.5-41.6-41.7-60.1
	c-11.2-13.6-20.1-23.5-20.1-23.5s94.6-76.3,87.1-32.9c-1.6,9.9-0.1,20,4.1,29.1c9.4,21.3,30.3,38.1,40.8,45.5
	C780.6,215.8,783,217.3,783,217.3z"/>
<path class="st3" d="M721.5,151.8c-1.4,1.6-6.4,7.3-7.9,8.8c-14.3,14.3-16.2,34.9-38.5,34.9c-3.4,0-6.7-0.2-10-0.6
	c-11.2-13.6-20.1-23.5-20.1-23.5s94.6-76.3,87.1-32.9C730.1,148.9,717.5,142.8,721.5,151.8z"/>
<path class="st14" d="M753.7,117.7c0,41.7-35.2,75.5-78.7,75.5s-78.7-33.8-78.7-75.5s35.2-75.5,78.7-75.5l0,0
	c43.3-0.2,78.5,33.4,78.7,74.9C753.7,117.3,753.7,117.5,753.7,117.7z"/>
<path class="st3" d="M783,217.3c0,0-76.2,69.1-73.7,49c0.4-2.8-0.7-6.7-2.6-11.2l11-24.9c13.5-11.3,30.8-17.6,48.7-17.7
	c3.3,0,6.5,0.2,9.8,0.6l0.6,0.1C780.6,215.8,783,217.3,783,217.3z"/>
<path class="st17" d="M872.6,723.4c0,0-54,82.7-54,89.2c0,0-61.1-22.9-82.9-27.7c-21.8-4.8-42.3-48.6-42.3-48.6
	s-57.8-52.2-80.4-59.5c-19.2-6.1-111.3-130.9-138.8-168.5c-6.9-9.4-6.6-22.1,0.7-31.3l0.5-0.6c14.8-17.9,38.7-26.4,62.1-22.2
	c2.5,0.4,5.1,1,7.5,1.8c39.5,11.7,108,31.9,142.5,41c11.6,3,19.3,4.8,20.8,4.7c3.8-0.4,5.8-3.6,7-7.2c0.9-2.9,1.3-5.9,1.4-8.9
	c0,0,0-0.2,0-0.5c-1.1-7.7-2.7-15.2-5-22.7c-4-13.3-11-28.8-22.6-36.2c-9.6-6.2-17.3-19.7-21.3-35.5c-5.4-21.3-4.1-46.7,7.9-63.3
	l11.6-26.3l19.4-44l10.8-24.5c13.5-11.3,30.8-17.6,48.7-17.7c3.3,0,6.5,0.2,9.8,0.6c8.3,1.1,15.5,3.5,18.5,8.2
	c9.2,14.5,30.1,41,34.3,67.5s-0.8,69.9,13.4,86s22.6,54.6,37.7,62.7c15.1,8-24.3,24.9-24.3,24.9l0.2,2.5l0.7,11.1
	c0,0,0.3,0.3,0.8,0.9C866.2,489.7,945.4,589.6,872.6,723.4z"/>
<path class="st1" d="M857.5,479.3c-16.5,3.3-52.6,10.5-68.7,13.7l-2.8,0.6c-0.9,0.2-2,0.3-3.1,0.5c-16.2,2.1-51.3,1.1-67.3,0.5
	c0.9-2.9,1.3-5.9,1.4-8.9c0,0,0-0.2,0-0.5c12.2-0.8,41.2-3,66-7.9c2-0.4,4-0.8,6-1.2c2.8-0.6,5.5-1.3,8.2-2c22.2-6,45.7-6.8,59-6.7
	l0.7,11.1C856.7,478.4,856.9,478.7,857.5,479.3z"/>
<path class="st17" d="M788.7,475.9v17l-2.8,0.6c-0.9,0.2-2,0.3-3.1,0.5v-16.8C784.8,476.8,786.8,476.4,788.7,475.9z"/>
<path class="st3" d="M804.1,508.6c0,0-33.6,73.8-54,81s-71.3,32.8-71.3,32.8s29.2,24.7,59.6-2.4S812.9,520.6,804.1,508.6z"/>
<path class="st3" d="M840.8,498.6c0,0,3.1,28-1.3,33.1S840.8,498.6,840.8,498.6z"/>
<path class="st3" d="M859.1,517c0,0,17,170.5-67.2,171.4C791.9,688.4,870.7,613.4,859.1,517z"/>
<path class="st3" d="M880.4,558c0,0,24.2,89.5-7.5,99.7C872.9,657.7,889.5,611.3,880.4,558z"/>
<path class="st3" d="M730,535.1c-1.6,0-65.3,10.5-51.5,19S730,535.1,730,535.1z"/>
<path class="st3" d="M774,414.3c0,0,52.1,44.3,42.1,49.1"/>
<path class="st3" d="M769.6,428.5c0,0,30.1,35.5,26.7,37.7"/>
<path class="st3" d="M833.9,423c0,0,13.8,16.6,11.6,20.2"/>
<path class="st3" d="M847.8,414.3c0,0,19.8,14.7,15.4,20.5"/>
<path class="st14" d="M737.9,234.8c0,0,64.4,4.8,61.5,54.5s-50.9,62.4-50.9,62.4L686,334.5C686.1,334.5,714,238.1,737.9,234.8z"/>
<path class="st3" d="M545.1,456c39.5,11.7,108,31.9,142.5,41c-4.6,2.2-9.9,2.5-14.7,0.8l-130.3-41.2l-5.1-2.3
	C540.1,454.6,542.6,455.2,545.1,456z"/>
<path class="st3" d="M765.6,333.1c-6.1,7.8-11.5,16.3-11.3,21.5c0.1,3.8-2.5,13.5-6,24.9c-9,28.8-21.2,56.5-36.4,82.8
	c-4-13.3-11-28.8-22.6-36.2c-9.6-6.2-17.3-19.7-21.3-35.5c3.1-11.4,6-21,7.1-23.3c3.1-6,8.8-40.4,8.8-40.4
	c0.5-8.7,1.7-17.4,3.6-25.9c4.6-20.9,12.3-34.9,19.4-44c8.6-11,16.3-14.8,16.3-14.8l18.5-2.7c21.3-0.7,31.6,14.9,36.6,32
	C784.4,292.8,779.3,315.5,765.6,333.1z"/>
<path class="st14" d="M719.4,237.5c0,0-34.8,17.2-39.2,84.6c0,0-5.7,34.3-8.8,40.4c-3.1,6-18.2,63-16.3,69.9c0,0-3.1,6.9-14.8,3.9
	c-11.6-3-74.4-12.4-88.5-21.4l-38.9-17.8c0,0-76-51.5-92-7.2s75,42.5,75,42.5l43,19.3l130.3,41.2c0,0,17.3,7.5,28.9-16.6
	c2.9-6,6-11.7,9-17c15.7-26.8,28.2-55.1,37.4-84.6c3.6-11.5,6.1-21.1,6-24.9c-0.1-5.3,5.3-13.7,11.3-21.5
	c13.8-17.6,18.8-40.3,12.7-61.6c-5-17.1-15.3-32.7-36.6-32L719.4,237.5z"/>
<path class="st3" d="M283.3,144.2c-4.6,2.2-6.7,9.1-7.6,16.9c-0.8,0-1.6,0-2.4,0c-16.9,0-33.2-5.9-45.8-16.7c0.8-8.2,1-15,1-15
	S295.8,138.2,283.3,144.2z"/>
<path class="st8" d="M342.3,92.4c0,36.6-30.9,66.3-69.1,66.3s-69.1-29.7-69.1-66.3s30.9-66.3,69.1-66.3
	C311.3,26.2,342.2,55.8,342.3,92.4z"/>
<path class="st3" d="M365.6,351.9c0,0-36.1,13.9-47.4,18.7s-76-6.3-76-6.3s-33.6-16.3-30.8-32.5s-27-69.6-27-69.6
	s-0.9-47.3,12.2-56.3c13.2-9,8.2-28,8.2-28s0.1-0.6,0.3-1.7c0.8-4,3.8-14.3,13.5-17.6c2-0.5,4.1-0.6,6.1-0.2
	c9.4,1.4,24.8,8.1,37.5,14.2c10.5,5.1,19.3,9.9,21.3,11l0.4,0.2c0,0,4.7,10.5,10.4,7.2c5.7-3.3,33.9,12,39.2,19
	c5.3,6.9,1.6,39.5,0.6,47.6c-0.9,8.1,5.3,32.2,12.2,46.1C353.4,317.6,365.6,351.9,365.6,351.9z"/>
<path class="st13" d="M365.6,348.3c0,0-36.1,13.9-47.4,18.7s-76-6.3-76-6.3s-33.6-16.3-30.8-32.5s-27-69.6-27-69.6
	s-0.9-47.3,12.2-56.3c13.2-9,8.2-28,8.2-28s0.1-0.6,0.3-1.7c0.8-4,3.8-14.3,13.5-17.6c2-0.5,4.1-0.6,6.1-0.2
	c9.4,1.4,24.8,8.1,37.5,14.2c10.5,5.1,19.3,9.9,21.3,11l0.4,0.2c0,0,4.7,10.5,10.4,7.2c5.7-3.3,33.9,12,39.2,19
	c5.3,6.9,1.6,39.5,0.6,47.6s5.3,32.2,12.2,46.1C353.4,313.9,365.6,348.3,365.6,348.3z"/>
<path class="st1" d="M248.7,302c0,0-31,48.2-36,50.8l1.9,16.9c0,0,44.2-8.8,46.9-20.7s1.3-47.6,1.3-47.6L248.7,302z"/>
<path class="st18" d="M248.7,302c0,0-31,48.2-36,50.8l1.9,16.9c0,0,44.2-8.8,46.9-20.7s1.3-47.6,1.3-47.6L248.7,302z"/>
<path class="st3" d="M292.3,240.6c0,0,5.5,20.3,14.1,27.3C315.1,274.8,292.3,240.6,292.3,240.6z"/>
<path class="st8" d="M238.5,294.3c0.8,1.4,27.3,36,55.2,48.8C321.6,355.9,384,371,384,371s50.5,9,59.2,12.5
	c8.6,3.5,19.6-12-34.5-34.2c-54.2-22.1-64.7-31.9-64.7-31.9s-47.1-22-54.6-32.9C281.8,273.6,238.5,294.3,238.5,294.3z"/>
<path class="st3" d="M258.2,462.8c0.9-0.6,23.5-23.8,26.4-13.9S258.2,462.8,258.2,462.8z"/>
<path class="st3" d="M271.4,417c-0.3,0.9-3.5,26.5-12.6,29.5"/>
<path class="st3" d="M280.8,423.9c0,0-8.2,27.4-18.5,29.2"/>
<path class="st3" d="M239.4,506.2c0,0,13.8,0.3,15.7-8.1"/>
<path class="st3" d="M258.2,561c1.9,0.3,31.4,18.4,23.9,22S258.2,561,258.2,561z"/>
<path class="st3" d="M260.9,713.6v2.8c-0.2,4.2-0.2,7.1-0.2,7.1l-48,22l-0.2-29c0,0,0-0.1,0-0.4l0,0v-2l19.2,0.6L260.9,713.6z"/>
<polygon class="st10" points="269.9,755.7 229.9,770.4 211.9,760.3 212.1,746.3 212.5,716.3 231.7,716.9 260.9,716 260.9,736.9 "/>
<path class="st3" d="M269.9,755.8l-40,14.7l-18-10.2l0.2-14c5.3,6.6,13.4,10.7,22.1,11c0,0,14.1-16.9,22.7-21.8
	c1.2-0.7,2.7-0.9,4.1-0.5v2L269.9,755.8z"/>
<path class="st11" d="M234.2,759.7c0,0-16.3,0.2-24.5-14.7c0,0-11.6,10.8-11.9,33.5c-0.2,22.7,0.2,23.5,0.2,23.5s47-1.8,55.8,1.4
	c8.8,3.1,82.5-2.7,82.5-2.7s4.9-12.4-17.4-16.7s-40.6-27.1-41.3-28c-0.6-1-12.3-22.9-20.8-18.1C248.3,742.7,234.2,759.7,234.2,759.7
	z"/>
<path class="st3" d="M333.2,14.4l-4.7-0.6l2.9-0.1L333.2,14.4z"/>
<path class="st3" d="M342.3,92.4c0,5.1-0.6,10.3-1.8,15.3c-1-0.3-2.1-0.7-3-1.2c-1.3-0.8-2.7-2-4.3-1.8c-0.9,0.1-1.8,0.5-2.5,1.1
	c-7.4,5.2-13,13.8-22,15.5c0.9-2.5,1-5.3,0.4-7.9c-3.9,3.8-9.4,5.5-14.9,4.6c0.7-1.5,0.7-3.2,0.2-4.7c-6.4,3.4-13,6.4-19.8,8.8
	c-0.2-1.2-0.5-2.3-0.7-3.5c-9.6,4.5-8.9,19.8-18.5,24.3c-5.7,2.7-13.8,0.8-17.8,5.6c-0.2,0.2-0.3,0.4-0.4,0.6
	C204.7,130,194.4,89.2,214.3,58s62.4-41,94.9-22C329.7,48,342.2,69.4,342.3,92.4L342.3,92.4z"/>
<path class="st19" d="M277.5,16.8c-5.8-2.3-11.7-4.6-17.9-5.3c-6.2-0.7-13,0.5-17.7,4.5c-3.8,3.2-6.7,8.3-11.7,8.4
	c-2.4,0.1-4.7-1.1-6.9-2.1c-6.3-2.9-14.1-4.5-19.8-0.7c-4.5,3.1-6.2,8.7-7,14s-0.9,10.8-3.5,15.5c-1.6,2.9-4.1,5.3-6.1,7.9
	c-5.2,6.7-7.6,15-6.8,23.3c0.5,4.1,1.4,8.2,2.7,12.1l5.1,17.4c2.6,8.8,5.2,17.8,10.2,25.6c4.9,7.8,12.6,14.6,21.8,16.6
	c5.6,1.2,12.4,0.2,15.5-4.4c0.8-1.2,1.3-2.5,2.2-3.6c3.9-4.8,12-2.9,17.8-5.6c9.6-4.5,8.9-19.8,18.5-24.3l0.7,3.5
	c6.8-2.5,13.4-5.4,19.8-8.8c0.5,1.6,0.4,3.2-0.2,4.7c5.4,0.9,11-0.8,14.9-4.6c0.7,2.6,0.6,5.3-0.4,7.9c9-1.7,14.6-10.3,22-15.5
	c0.7-0.6,1.6-1,2.5-1.1c1.6-0.1,2.9,1,4.3,1.8c4.8,2.8,11,2,14.9-1.8c4-4.1,4.1-10.5,2.9-15.9c-1.3-5.5-3.8-10.7-4.3-16.3
	c-0.8-7.6,2-15.5-0.6-22.8c-2.1-6.1-7.8-10.6-13.8-13.5s-12.6-4.6-18.7-7.2c-5.9-2.5-11.3-5.9-17.4-7.9c-8.8-2.9-18.3-2.7-27.6-2.4"
	/>
<path class="st6" d="M278.6,241.2c0,0,10-64.9-76-61.7l-43.3,5.5c0,0,41.3,7.1,51.3,8.2l1.1,0.1C220.9,195,252.7,193,278.6,241.2z"
	/>
<path class="st3" d="M223.7,499.8v-0.7C259,469.8,223.7,499.8,223.7,499.8z"/>
<path class="st1" d="M147.8,502.1c-5.1,0.4-10.1,0.4-15.2,0L27,354.5c1.9-4.9,6.6-7.8,11.1-9.5L147.8,502.1z"/>
<path class="st1" d="M79.3,344.1l-5,5.7c0,0-38.1-60.7-46.3-91.6c1.6-3.5,3.9-4.3,3.9-4.3s4-2.8,10.4-7.2
	C44.7,261.3,52.8,296.8,79.3,344.1z"/>
<path class="st1" d="M107.3,325.4l-10,5.4C69.9,300,67.5,248.3,67.8,227.6l7.2-5C75.9,249.8,107.3,325.4,107.3,325.4z"/>
<path class="st3" d="M133.6,320c-0.3,3.9-11.9,43.7,5,50.3C155.6,376.9,133.6,320,133.6,320z"/>
<path class="st3" d="M170,388.4c0.6,2.1,6.3,70.8,18.5,65.4c12.2-5.4,5.7-83.7,5.7-83.7L170,388.4z"/>
<path class="st3" d="M753.7,117.7c0,19.5-7.8,38.3-21.9,52.3c-5.7,1.2-11.7,1.3-17.5,0.3c-3-0.4-5.8-1.4-8.2-3.1
	c-2.3-2-4.1-4.5-5.3-7.3c-4.6-9.5-6.9-20.4-13.4-28.5c-6.4-8.1-19.5-11.7-25.7-3.3c-3.4,4.5-3.9,11.4-8.5,14.6
	c-5.4,3.8-12.6-0.7-16.8-6c-12.4-15.7-8.2-46.5-31.9-50.8l-1-0.2c18.5-37.8,65.3-54,104.7-36.3C736.1,61.7,753.7,88.4,753.7,117.7z"
	/>
<path class="st20" d="M606,84.6c-3.8-0.7-8.3-0.6-10.9-3.8c-1.5-1.9-2-4.5-2.3-7c-1.5-10.7-2.4-22.1,2-31.8
	c7.3-15.9,26-21.2,42.2-20c16.3,1.2,32.2,7,48.5,6c12-0.7,23.7-5.2,35.7-3.9c9.4,1,18.2,5.5,26.7,10.1c7.9,4.3,16,8.9,21.7,16.4
	c8.3,10.9,9.8,26,10,40.1c0.3,16.6-0.9,33.8-8.2,48.4c-10.5,21.2-34,33.8-55.9,30c-3-0.4-5.8-1.4-8.2-3.1c-2.3-2-4.1-4.6-5.3-7.3
	c-4.6-9.5-6.9-20.4-13.4-28.5c-6.4-8.1-19.5-11.6-25.7-3.3c-3.4,4.5-3.9,11.4-8.5,14.6c-5.4,3.7-12.6-0.7-16.8-6
	C625.4,119.7,629.7,88.9,606,84.6z"/>
<path class="st20" d="M797,49.6c12,5.5,20.3,16.2,28.1,26.4c6.5,8.5,13.2,17.7,14.1,28.2c0.3,4.3-0.3,8.7,0.5,12.9
	c3,15,22.6,21.7,28.3,36c2.7,6.7,1.8,14.2,0.7,21.3c-1.7,10.3-3.9,20.5-6.8,30.5c-1.7,6-3.6,12.3-2.3,18.4c1,4.7,3.8,8.9,6,13.3
	c5.8,11.7,6.8,25,7.2,37.9s0.4,26.1,4.5,38.4c4,12.3,12.9,24,25.7,28c-4.3,2.8-9.3,4.5-14.5,4.9c-0.8,4,1.6,8.1,5,10.7
	s7.5,3.9,11.6,5.1c-5.6,3.8-12.7,4.8-19.2,2.8c-5.4-1.7-9.8-5.3-14.1-8.8l-24.1-19.9c-3.2-2.5-6.2-5.3-8.9-8.3
	c-15.6-18.6-6.3-46.7-15-69c-7.1-18.1-26.1-32.9-24.4-52.1c0.5-5.4,2.6-10.5,4.4-15.7c13-37.9,7.6-79.4-14.6-113
	c-2.7-4.1-5.9-8.2-10.5-10.3c-7-3.2-16.9-1.8-20.9-8.2c-2.1-3.4-2.5-9.3-2.7-13C768,43.3,785.1,44.1,797,49.6z"/>
<path class="st3" d="M185.6,253.6c5.9-37.1,54.2-50.4,79.8-22.1c7.4,8.2,14,17.2,17.7,26.2c12.6,30.4,13.5,33.1,13.5,33.1
	s-77.5,14.5-76.9,25.3l-35.2-53.9C184.5,262.2,184.7,258.8,185.6,253.6z"/>
<path class="st13" d="M185.6,249.9c5.9-37.1,54.2-50.4,79.8-22.1c7.4,8.2,14,17.2,17.7,26.2c12.6,30.4,13.5,33.1,13.5,33.1
	s-77.5,14.5-76.9,25.3l-35.2-53.9C184.5,258.6,184.7,255.2,185.6,249.9z"/>
<path class="st3" d="M207.4,202.4c0.9,1.5,38,44.9,57.4,51.1S207.4,202.4,207.4,202.4z"/>
<path class="st3" d="M48.2,342.6c0,0,97.9,110.9,110.5,155.7"/>
<path class="st21" d="M52,240.2c0,0,21.3,106,62.8,150.6s84.1,120.5,84.1,120.5"/>
<g class="st5">
	<path d="M354.6,85.9c0.1,3.5-1.2,7-3.6,9.6c-3.9,3.9-10.1,4.6-14.9,1.8c-1.3-0.8-2.7-2-4.3-1.8c-0.9,0.1-1.8,0.5-2.5,1.1
		c-7.1,5-12.4,13-20.7,15.2c0.3,2.1,0.1,4.3-0.7,6.3c9-1.7,14.6-10.3,22-15.5c0.7-0.6,1.6-1,2.5-1.1c1.6-0.1,2.9,1,4.3,1.8
		c4.8,2.8,11,2,14.9-1.8C355.6,97.5,355.8,91.3,354.6,85.9z"/>
	<path d="M349.6,63.3c0.1,1,0.3,2,0.5,2.9c0-6,1.5-12.3,0-18.1C350.1,53.1,349.1,58.3,349.6,63.3z"/>
	<path d="M307.8,104.2c-3.9,3.7-9.4,5.4-14.9,4.6c0.6-1.5,0.7-3.2,0.2-4.7c-6.4,3.4-13,6.4-19.8,8.8l-0.7-3.5
		c-9.6,4.5-8.9,19.8-18.5,24.3c-5.7,2.7-13.8,0.7-17.8,5.6c-0.9,1.1-1.4,2.4-2.2,3.6c-3.1,4.6-9.9,5.6-15.5,4.4
		c-9.3-2-16.9-8.8-21.8-16.6s-7.6-16.8-10.2-25.6l-5.1-17.4c-0.8-2.9-1.7-5.8-2.2-8.7c0,0.9,0,1.8,0.1,2.7c0.5,4.1,1.4,8.2,2.7,12.1
		l5.1,17.4c2.6,8.8,5.2,17.8,10.2,25.6c4.9,7.8,12.6,14.6,21.8,16.6c5.6,1.2,12.4,0.2,15.5-4.4c0.8-1.2,1.3-2.5,2.2-3.6
		c3.9-4.8,12-2.9,17.8-5.6c9.6-4.5,8.9-19.8,18.5-24.3l0.7,3.5c6.8-2.5,13.4-5.4,19.8-8.8c0.5,1.6,0.4,3.2-0.2,4.7
		c5.2,0.8,10.4-0.7,14.3-4.1C308.3,108.6,308.3,106.3,307.8,104.2z"/>
</g>
<path class="st3" d="M283.6,183.6c-6.8,3.7-22.5,12-25.6,10.6c-3.4-1.5-40.4-13.9-52.7-18.1c0.8-4,3.8-14.3,13.5-17.6
	c2-0.5,4.1-0.6,6.1-0.2l37.5,14.2C272.8,177.8,281.6,182.5,283.6,183.6z"/>
<path class="st13" d="M283.6,180c-6.8,3.7-22.5,12-25.6,10.6c-3.4-1.5-40.4-13.9-52.7-18.1c0.8-4,3.8-14.3,13.5-17.6
	c2-0.5,4.1-0.6,6.1-0.2l37.5,14.2C272.8,174.2,281.6,178.9,283.6,180z"/>
<path class="st3" d="M779.6,89.3c-0.4,13.6-2.3,27.2-8.2,39c-10.5,21.2-34,33.8-55.9,30c-3-0.4-5.8-1.4-8.2-3.1
	c-2.3-2-4.1-4.6-5.3-7.3c-4.6-9.5-6.9-20.4-13.4-28.5c-6.4-8.1-19.5-11.6-25.7-3.3c-3.4,4.5-3.9,11.4-8.5,14.6
	c-5.4,3.7-12.6-0.7-16.8-6c-12.4-15.7-8.2-46.5-31.9-50.8c-3.8-0.7-8.3-0.6-10.9-3.8c-1.5-1.9-2-4.5-2.3-7c-0.4-2.9-0.8-5.9-1-8.8
	c-0.4,6.6-0.1,13.2,1,19.7c0.4,2.5,0.8,5.1,2.3,7c2.6,3.2,7,3.1,10.9,3.8c23.7,4.3,19.4,35.1,31.9,50.8c4.2,5.3,11.3,9.7,16.8,6
	c4.5-3.1,5-10.1,8.5-14.6c6.2-8.3,19.2-4.8,25.7,3.3c6.4,8.1,8.8,19,13.4,28.5c1.2,2.8,3,5.3,5.3,7.3c2.4,1.7,5.2,2.8,8.2,3.1
	c21.9,3.8,45.3-8.8,55.9-30c7.3-14.6,8.5-31.8,8.2-48.4C779.6,90.2,779.6,89.7,779.6,89.3z"/>
<g class="st5">
	<path d="M861.7,147.1c2.7,6.7,1.8,14.2,0.7,21.3c-1.7,10.3-3.9,20.5-6.8,30.5c-1.7,6-3.6,12.3-2.3,18.4c1,4.7,3.8,8.9,6,13.3
		c5.8,11.7,6.8,25,7.2,37.9s0.4,26.1,4.5,38.4c2.6,8.4,7.6,16,14.4,21.8c-3.6-4.6-6.4-9.8-8.1-15.3c-4-12.3-4-25.5-4.5-38.4
		s-1.4-26.2-7.2-37.9c-2.2-4.4-5-8.5-6-13.3c-1.3-6.1,0.6-12.4,2.3-18.4c2.8-10.1,5.1-20.3,6.8-30.6c1.2-7.1,2-14.6-0.7-21.3
		c-2.1-5.4-6.3-9.6-10.8-13.8C859.1,141.9,860.6,144.4,861.7,147.1z"/>
	<path d="M903,341.4c-3.4-1.1-6.5-2.6-9.3-4.7c-3.6,1.8-7.4,2.9-11.4,3.2c-0.8,4,1.6,8.1,5,10.7c0.7,0.5,1.4,1,2.1,1.4
		c-0.9-1.8-1.2-3.7-0.8-5.7C893.7,345.9,898.7,344.2,903,341.4z"/>
	<path d="M772.4,61.4c-4.8-2.2-11-2.2-15.7-4.1c0.3,0.8,0.6,1.6,1.1,2.4c4,6.4,13.9,5,20.9,8.2c0.9,0.4,1.7,0.9,2.5,1.5
		C779.1,66.1,776,63.3,772.4,61.4z"/>
	<path d="M894.7,357.9c-4.8,2-10.2,2.2-15.2,0.7c-5.4-1.7-9.8-5.3-14.1-8.8l-24.1-19.9c-1.1-0.9-2.3-1.9-3.4-2.9
		c0.3,0.3,0.5,0.7,0.8,1c2.7,3,5.7,5.8,8.9,8.3l24.1,19.9c4.3,3.5,8.7,7.2,14.1,8.8c6.5,2,13.6,0.9,19.2-2.9
		C901.4,361.3,897.9,359.8,894.7,357.9z"/>
	<path d="M818.8,70c6.5,8.5,13.2,17.7,14.1,28.2c0.3,4.3-0.3,8.7,0.5,12.9c1.4,6.8,6.1,11.9,11.5,16.7c-2.6-3-4.4-6.5-5.2-10.3
		c-0.9-4.3-0.2-8.6-0.5-13c-0.9-10.5-7.5-19.7-14.1-28.2c-4.7-6.2-9.6-12.6-15.4-17.9C812.9,62.2,815.9,66.1,818.8,70z"/>
</g>
<path class="st3" d="M763.7,45c0,0-7.5,12,13.8,22.1l1.3-3.2L763.7,45z"/>
<path class="st17" d="M762.5,45c0,0-7.5,12,13.8,22.1l1.3-3.2L762.5,45z"/>
</svg>
